<svg width="1100" height="1000" viewBox="0 0 1100 1000" fill="none" xmlns="http://www.w3.org/2000/svg">
<path fill-rule="evenodd" clip-rule="evenodd" d="M658.523 146.565C823.524 146.565 991.693 280.843 1026.92 443.435L910.931 500.619L1026.89 557.781C991.627 720.396 823.502 854.651 658.479 854.651C474.844 854.651 286.699 727.298 178.722 529.444C149.484 552.892 115.45 583.221 83.7038 603.086C92.9878 567.426 100.93 535.217 107.288 499.336C101.018 462.969 94.0438 428.636 83.7038 396.427C115.604 416.381 148.406 449.519 177.292 474.405C285.027 275.069 474.074 146.565 658.523 146.565ZM845.678 295.73C821.17 295.73 801.304 315.706 801.304 340.349C801.304 364.993 821.17 384.968 845.678 384.968C870.187 384.968 890.053 364.993 890.053 340.349C890.075 315.728 870.209 295.73 845.678 295.73ZM784.76 98.4513C743.642 85.4881 701.159 79.2941 658.083 79.2941L607.813 7.15606C604.227 1.97964 598.463 -0.608567 592.237 0.121441C586.011 0.873571 581.017 4.76695 578.685 10.6291L546.829 92.567C511.892 100.796 477.374 112.786 443.692 128.183L368.979 81.7939C363.589 78.4535 357.319 78.365 351.863 81.5505C346.407 84.7139 343.371 90.2442 343.591 96.571L346.539 183.752C319.787 202.334 293.959 223.172 269.385 246.09L184.288 224.367C178.194 222.84 172.166 224.588 167.92 229.278C163.652 233.923 162.42 240.139 164.488 246.112L193.352 328.647C181.472 343.668 170.032 359.263 159.142 375.412C127.946 344.044 71.4717 316.281 29.4294 303.915C11.8293 298.783 -3.76878 314.6 0.80725 332.319L41.1555 500.398L0.80725 668.477C-3.70278 685.909 11.5653 703.009 28.1314 698.164C70.0417 685.842 127.88 656.797 158.988 625.517C169.856 641.622 181.23 657.173 193.066 672.171L164.532 753.888C162.442 759.861 163.696 766.055 167.942 770.7C172.144 775.412 178.216 777.204 184.332 775.633L268.417 754.153C293.299 777.425 319.435 798.551 346.539 817.399L343.635 903.407C343.415 909.734 346.451 915.264 351.907 918.427C357.363 921.635 363.655 921.546 369.023 918.184L442.636 872.503C476.824 888.232 511.892 900.398 547.379 908.716L578.707 989.371C581.039 995.211 585.967 999.082 592.259 999.879C598.485 1000.61 604.249 998.02 607.835 992.866L658.545 921.9C702.656 921.9 745.38 915.308 785.904 902.389L853.994 953.888C858.989 957.715 865.237 958.401 870.979 955.746C876.655 953.047 880.219 947.849 880.593 941.522L885.631 854.961C920.985 831.866 954.095 802.046 982.761 771.076L1065.02 780.898C1071.27 781.65 1077.01 779.04 1080.6 773.841C1084.2 768.665 1084.69 762.36 1081.81 756.719L1046.47 686.639C1081.78 627.176 1100 564.462 1100 500.575C1100 436.511 1081.65 373.62 1046.12 313.981L1081.78 243.258C1084.64 237.64 1084.18 231.313 1080.57 226.158C1076.97 220.96 1071.25 218.35 1065 219.102L981.727 228.99C953.303 198.462 920.611 169.063 885.675 146.256L880.549 58.4557C880.175 52.129 876.611 46.9304 870.935 44.2316C865.237 41.5549 858.945 42.2849 853.95 46.0456L784.76 98.4513Z" fill="white"/>
</svg>
